<svg width="108" height="229" viewBox="0 0 108 229" fill="none" xmlns="http://www.w3.org/2000/svg">
<g filter="url(#filter0_d_1_6163)">
<path d="M103.111 171.065C103.111 198.388 80.878 220.621 53.5554 220.621C26.2327 220.621 3.99988 198.388 3.99988 171.065C3.99988 143.743 26.2327 121.51 53.5554 121.51C80.878 121.51 103.111 143.743 103.111 171.065ZM7.57003 171.065C7.57003 196.421 28.1999 217.051 53.5554 217.051C78.9108 217.051 99.5407 196.421 99.5407 171.065C99.5407 145.71 78.9108 125.08 53.5554 125.08C28.1999 125.08 7.57003 145.71 7.57003 171.065Z" fill="#11F8A5"/>
<path d="M103.113 49.9295C103.113 50.9183 102.312 51.7094 101.334 51.7094C100.355 51.7094 99.5537 50.9079 99.5537 49.9295C99.5537 24.5741 78.9238 3.94418 53.5684 3.94418C28.213 3.94418 7.58305 24.5741 7.58305 49.9295C7.58305 50.9183 6.78156 51.7094 5.80315 51.7094C4.82474 51.7094 4.02332 50.9079 4.02332 49.9295C4.02332 22.6069 26.2561 0.374023 53.5788 0.374023C80.9015 0.374023 103.134 22.6069 103.134 49.9295H103.113Z" fill="#11F8A5"/>
<path d="M44.0118 162.312C44.0118 164.133 45.2505 165.715 47.02 166.152L50.3819 166.996V158.346H47.9879C45.8021 158.346 44.0223 160.126 44.0223 162.312H44.0118Z" fill="#11F8A5"/>
<path d="M56.7292 183.785H59.1233C61.3091 183.785 63.089 182.005 63.089 179.819C63.089 177.997 61.8503 176.415 60.0808 175.978L56.7189 175.135V183.785H56.7292Z" fill="#11F8A5"/>
<path d="M53.5562 130.742C31.3234 130.742 13.2228 148.832 13.2228 171.076C13.2228 193.319 31.313 211.409 53.5562 211.409C75.7995 211.409 93.8897 193.319 93.8897 171.076C93.8897 148.832 75.7995 130.742 53.5562 130.742ZM69.4607 164.706H63.1009V161.521C63.1009 159.772 61.675 158.335 59.9159 158.335H56.7309V168.578L61.6334 169.806C66.234 170.961 69.4502 175.073 69.4502 179.819C69.4502 185.512 64.8184 190.144 59.1249 190.144H56.7309V198.201H50.3712V190.144H47.1862C41.9194 190.144 37.6415 185.866 37.6415 180.6V177.415H44.0011V180.6C44.0011 182.348 45.4271 183.785 47.1862 183.785H50.3712V173.542L45.4687 172.314C40.8681 171.159 37.6519 167.048 37.6519 162.301C37.6519 156.608 42.2837 151.976 47.9772 151.976H50.3712V143.92H56.7309V151.976H59.9159C65.1827 151.976 69.4607 156.254 69.4607 161.521V164.706Z" fill="#11F8A5"/>
<path d="M103.173 49.1697V168.765C103.173 169.754 102.371 170.545 101.393 170.545C100.415 170.545 99.6132 169.743 99.6132 168.765V49.1697C99.6132 48.1809 100.415 47.3899 101.393 47.3899C102.371 47.3899 103.173 48.1913 103.173 49.1697Z" fill="#11F8A5"/>
<path d="M7.63774 48.9095V168.505C7.63774 169.494 6.83625 170.285 5.85784 170.285C4.87943 170.285 4.078 169.483 4.078 168.505V48.9095C4.078 47.9207 4.87943 47.1296 5.85784 47.1296C6.83625 47.1296 7.63774 47.9311 7.63774 48.9095Z" fill="#11F8A5"/>
</g>
<defs>
<filter id="filter0_d_1_6163" x="-0.00012207" y="0.374023" width="107.173" height="228.247" filterUnits="userSpaceOnUse" color-interpolation-filters="sRGB">
<feFlood flood-opacity="0" result="BackgroundImageFix"/>
<feColorMatrix in="SourceAlpha" type="matrix" values="0 0 0 0 0 0 0 0 0 0 0 0 0 0 0 0 0 0 127 0" result="hardAlpha"/>
<feOffset dy="4"/>
<feGaussianBlur stdDeviation="2"/>
<feComposite in2="hardAlpha" operator="out"/>
<feColorMatrix type="matrix" values="0 0 0 0 0 0 0 0 0 0 0 0 0 0 0 0 0 0 0.25 0"/>
<feBlend mode="normal" in2="BackgroundImageFix" result="effect1_dropShadow_1_6163"/>
<feBlend mode="normal" in="SourceGraphic" in2="effect1_dropShadow_1_6163" result="shape"/>
</filter>
</defs>
</svg>
